<?xml version="1.0" ?><!DOCTYPE svg  PUBLIC '-//W3C//DTD SVG 1.1//EN'  'http://www.w3.org/Graphics/SVG/1.1/DTD/svg11.dtd'><svg enable-background="new 0 0 48 48" height="48px" id="_x3C_Layer_x3E_" version="1.1" viewBox="0 0 48 48" width="48px" xml:space="preserve" xmlns="http://www.w3.org/2000/svg" xmlns:xlink="http://www.w3.org/1999/xlink"><g id="analysis_x2C__analytics_x2C__magnifier"><g><path d="M41.672,45.999c-0.384,0-0.769-0.146-1.061-0.438l-9.899-9.899c-0.585-0.585-0.585-1.536,0-2.121    l2.828-2.829c0.584-0.584,1.535-0.583,2.121,0l9.899,9.9c0.585,0.585,0.585,1.537,0,2.122l-2.828,2.828    C42.44,45.853,42.056,45.999,41.672,45.999z M34.601,31.272c-0.128,0-0.256,0.049-0.354,0.146l-2.828,2.829    c-0.195,0.195-0.195,0.512,0,0.707l9.899,9.899c0.195,0.195,0.512,0.195,0.707,0l2.828-2.828c0.195-0.195,0.195-0.512,0-0.708    l-9.899-9.9C34.856,31.321,34.729,31.272,34.601,31.272z" fill="#546E7A"/></g><path d="M18.5,35C9.402,35,2,27.598,2,18.5S9.402,2,18.5,2S35,9.402,35,18.5c0,3.703-1.198,7.202-3.466,10.119   c-0.171,0.218-0.485,0.256-0.701,0.087c-0.218-0.169-0.258-0.483-0.088-0.701C32.874,25.266,34,21.979,34,18.5   C34,9.953,27.047,3,18.5,3S3,9.953,3,18.5S9.953,34,18.5,34c4.027,0,7.844-1.538,10.745-4.33c0.198-0.19,0.515-0.186,0.707,0.014   c0.191,0.199,0.186,0.516-0.014,0.707C26.85,33.363,22.788,35,18.5,35z" fill="#546E7A"/><g><path d="M33.894,31.064c0.132-0.131,0.294-0.202,0.462-0.245l-2.925-2.924c-0.198,0.272-0.393,0.548-0.607,0.807    l2.717,2.716L33.894,31.064z" fill="#546E7A"/><path d="M31.065,33.894l0.354-0.354l-2.717-2.716c-0.259,0.215-0.534,0.409-0.807,0.607l2.925,2.924    C30.863,34.188,30.934,34.025,31.065,33.894z" fill="#546E7A"/></g></g></svg>